<?xml version="1.0" encoding="utf-8"?>
<!-- Generator: Adobe Illustrator 23.0.3, SVG Export Plug-In . SVG Version: 6.00 Build 0)  -->
<svg version="1.1" id="圖層_1" xmlns="http://www.w3.org/2000/svg" xmlns:xlink="http://www.w3.org/1999/xlink" x="0px" y="0px"
	 viewBox="0 0 198.2 194.52" style="enable-background:new 0 0 198.2 194.52;" xml:space="preserve">
<style type="text/css">
	.st0{fill:none;stroke:#000000;stroke-miterlimit:10;}
</style>
<text transform="matrix(0.8791 0 0 1 -734.4891 277.5117)" style="font-family:'Olicana-Fine'; font-size:144.1451px;">N</text>
<text transform="matrix(-1 0 0 -1 -704.1346 -230.504)" style="font-family:'MongolianBaiti'; font-size:184.9252px;">N</text>
<text transform="matrix(1 0 0 1 -654.8462 -27.0723)" style="font-family:'AdobeMingStd-Light-B5pc-H'; font-size:238.2601px;">A</text>
<path d="M-693.16,246.91c0,0,7.08-1.46,12.23-5.13l4.83,5.13c0,0-12.87,3.66-19.63,2.93C-702.49,249.11-693.16,246.91-693.16,246.91
	z"/>
<circle class="st0" cx="-674" cy="232.16" r="81.32"/>
<path d="M-719.54,299.55c0,0,85.65,32.01,122.24-40.3c0,0-14.68,40.29-51.07,50.12C-648.37,309.37-688,322.09-719.54,299.55z"/>
<g>
	<path d="M114.98,134.5c-13.38-8.37-24.49-28.93-33.19-42.78c-0.94-1.37-1.74-2.74-2.54-3.96c-9.91,31.67-29.45,84.8-45.11,84.8
		c-3.21,0-6.69-2.44-6.69-10.2c0-4.42,1.74-10.2,3.21-14.01c4.42,0,2.01,7.61,2.01,12.33c0,5.79,1.61,7.77,3.88,7.77
		c13.12,0,32.93-51.16,39.49-85.26c-5.09-7.16-7.5-8.53-9.1-9.29c-2.28-0.91-4.42-0.46-5.09,1.52c-0.4,1.07-1.07,1.07-0.94-0.46
		c0.27-3.2,2.68-7.76,7.76-7.76c2.94,0,6.02,1.22,9.24,3.96c0.54-4.87,1.34-7.77,3.48-7.61c1.47,0.15,2.94,1.67,3.88,3.04
		c-0.54,1.98-1.34,5.33-2.54,9.59c0.8,1.07,1.61,2.13,2.41,3.35c10.44,15.53,20.88,43.24,29.98,53.14
		c3.21-40.04,14.32-85.11,25.03-109.93c4.42,0.15,6.56,3.2,4.68,7.76c-12.18,29.69-26.5,81.91-28.64,113.58
		c-0.13,1.98-1.87,2.44-1.74,0C114.58,140.9,114.71,137.7,114.98,134.5z"/>
</g>
<path d="M78.86,112.84c0,0,7.48-1.55,12.92-5.41l5.1,5.41c0,0-13.6,3.87-20.74,3.09C69,115.16,78.86,112.84,78.86,112.84z"/>
<circle class="st0" cx="99.1" cy="97.26" r="85.9"/>
<path d="M51,168.44c0,0,90.47,33.81,129.12-42.57c0,0-15.51,42.56-53.95,52.94C126.17,178.81,84.31,192.25,51,168.44z"/>
</svg>
